<svg width="67" height="67" viewBox="0 0 67 67" fill="none" xmlns="http://www.w3.org/2000/svg">
<g clip-path="url(#clip0_105_709)">
<path fill-rule="evenodd" clip-rule="evenodd" d="M10.25 5C7.3504 5 5 7.3504 5 10.25V48.75C5 51.6496 7.3504 54 10.25 54H12V55.75C12 58.6496 14.3504 61 17.25 61H48.75C51.6496 61 54 58.6496 54 55.75V17.25C54 14.3504 51.6496 12 48.75 12H47V10.25C47 7.3504 44.6496 5 41.75 5H10.25ZM43.5 10.25C43.5 9.28359 42.7164 8.5 41.75 8.5H10.25C9.28359 8.5 8.5 9.28359 8.5 10.25V37.525L14.2625 31.7625C14.9461 31.0793 16.0539 31.0793 16.7375 31.7625L21.625 36.65L29.6184 28.6566C29.5414 28.3675 29.5 28.0636 29.5 27.75C29.5 25.8168 31.0668 24.25 33 24.25C34.9332 24.25 36.5 25.8168 36.5 27.75C36.5 29.6832 34.9332 31.25 33 31.25C32.6864 31.25 32.3825 31.2086 32.0934 31.1316L22.8625 40.3625C22.1789 41.0457 21.0711 41.0457 20.3875 40.3625L15.5 35.475L8.5 42.475V48.75C8.5 49.7164 9.28359 50.5 10.25 50.5H41.75C42.7164 50.5 43.5 49.7164 43.5 48.75V10.25ZM47 15.5H48.75C49.7164 15.5 50.5 16.2836 50.5 17.25V55.75C50.5 56.7164 49.7164 57.5 48.75 57.5H17.25C16.2836 57.5 15.5 56.7164 15.5 55.75V54H41.75C44.6496 54 47 51.6496 47 48.75V15.5Z" fill="url(#paint0_linear_105_709)"/>
</g>
<defs>
<linearGradient id="paint0_linear_105_709" x1="7.5" y1="8.5" x2="51" y2="58.5" gradientUnits="userSpaceOnUse">
<stop stop-color="#003399"/>
<stop offset="1" stop-color="#FFB319"/>
</linearGradient>
<clipPath id="clip0_105_709">
<rect width="67" height="67" fill="white"/>
</clipPath>
</defs>
</svg>
