<svg width="67" height="67" viewBox="0 0 67 67" fill="none" xmlns="http://www.w3.org/2000/svg">
<path d="M55.0703 12H12.7643C9.0133 12 6 15.0132 6 18.7643V49.2025C6 52.9535 9.01319 55.9668 12.7643 55.9668H55.0703C58.8213 55.9668 61.8346 52.9536 61.8346 49.2025V25.8358L61.8342 18.7645C61.8342 15.0748 58.8213 12.0002 55.0703 12.0002L55.0703 12ZM59.3746 49.2638C59.3746 51.6619 57.4685 53.5681 55.0703 53.5681H12.7643C10.3661 53.5681 8.45998 51.6619 8.45998 49.2638V25.897H59.3748L59.3746 49.2638ZM59.3746 23.3759H8.45976V18.764C8.45976 16.3659 10.3659 14.4598 12.764 14.4598H55.0701C57.4683 14.4598 59.3744 16.3659 59.3744 18.764L59.3746 23.3759Z" fill="url(#paint0_linear_206_4250)"/>
<path d="M15.9618 19.0718C15.9618 20.8035 14.5575 22.2078 12.8259 22.2078C11.0939 22.2078 9.68958 20.8035 9.68958 19.0718C9.68958 17.3399 11.0939 15.9355 12.8259 15.9355C14.5575 15.9355 15.9618 17.3399 15.9618 19.0718Z" fill="url(#paint1_linear_206_4250)"/>
<path d="M24.5092 19.0718C24.5092 20.8035 23.1053 22.2078 21.3732 22.2078C19.6412 22.2078 18.2369 20.8035 18.2369 19.0718C18.2369 17.3399 19.6412 15.9355 21.3732 15.9355C23.1052 15.9355 24.5092 17.3399 24.5092 19.0718Z" fill="url(#paint2_linear_206_4250)"/>
<path d="M33.0564 19.0718C33.0564 20.8035 31.6525 22.2078 29.9205 22.2078C28.1885 22.2078 26.7842 20.8035 26.7842 19.0718C26.7842 17.3399 28.1885 15.9355 29.9205 15.9355C31.6524 15.9355 33.0564 17.3399 33.0564 19.0718Z" fill="url(#paint3_linear_206_4250)"/>
<path d="M14.7935 47.481C15.0393 47.7268 15.3468 47.8499 15.6543 47.8499C15.9619 47.8499 16.2694 47.7268 16.5152 47.481L23.6483 40.3479C24.1403 39.8559 24.1403 39.1182 23.6483 38.6261L16.5152 31.493C16.0232 31.001 15.2855 31.001 14.7934 31.493C14.3014 31.985 14.3014 32.7227 14.7934 33.2148L21.0039 39.487L14.7934 45.7592C14.3014 46.2512 14.3015 46.9889 14.7935 47.481Z" fill="url(#paint4_linear_206_4250)"/>
<path d="M28.2601 40.7163H39.513C40.1895 40.7163 40.7427 40.1629 40.7427 39.4866C40.7427 38.8102 40.1894 38.2568 39.513 38.2568H28.2601C27.5837 38.2568 27.0304 38.8102 27.0304 39.4866C27.0304 40.1629 27.5837 40.7163 28.2601 40.7163Z" fill="url(#paint5_linear_206_4250)"/>
<defs>
<linearGradient id="paint0_linear_206_4250" x1="19.0862" y1="15.2975" x2="39.1783" y2="62.5881" gradientUnits="userSpaceOnUse">
<stop stop-color="#003399"/>
<stop offset="1" stop-color="#FFB319"/>
</linearGradient>
<linearGradient id="paint1_linear_206_4250" x1="11.1596" y1="16.406" x2="14.4878" y2="22.5744" gradientUnits="userSpaceOnUse">
<stop stop-color="#003399"/>
<stop offset="1" stop-color="#FFB319"/>
</linearGradient>
<linearGradient id="paint2_linear_206_4250" x1="19.707" y1="16.406" x2="23.0352" y2="22.5744" gradientUnits="userSpaceOnUse">
<stop stop-color="#003399"/>
<stop offset="1" stop-color="#FFB319"/>
</linearGradient>
<linearGradient id="paint3_linear_206_4250" x1="28.2542" y1="16.406" x2="31.5824" y2="22.5744" gradientUnits="userSpaceOnUse">
<stop stop-color="#003399"/>
<stop offset="1" stop-color="#FFB319"/>
</linearGradient>
<linearGradient id="paint4_linear_206_4250" x1="16.6728" y1="32.3785" x2="27.2718" y2="43.6452" gradientUnits="userSpaceOnUse">
<stop stop-color="#003399"/>
<stop offset="1" stop-color="#FFB319"/>
</linearGradient>
<linearGradient id="paint5_linear_206_4250" x1="30.2442" y1="38.4413" x2="30.5436" y2="41.5352" gradientUnits="userSpaceOnUse">
<stop stop-color="#003399"/>
<stop offset="1" stop-color="#FFB319"/>
</linearGradient>
</defs>
</svg>
