<svg width="56" height="44" viewBox="0 0 56 44" fill="none" xmlns="http://www.w3.org/2000/svg">
<path d="M49.0703 0H6.76427C3.0133 0 0 3.01319 0 6.76427V37.2025C0 40.9535 3.01319 43.9668 6.76427 43.9668H49.0703C52.8213 43.9668 55.8346 40.9536 55.8346 37.2025V13.8358L55.8342 6.76449C55.8342 3.07479 52.8213 0.000220329 49.0703 0.000220329L49.0703 0ZM53.3746 37.2638C53.3746 39.6619 51.4685 41.5681 49.0703 41.5681H6.76427C4.36611 41.5681 2.45998 39.6619 2.45998 37.2638V13.897H53.3748L53.3746 37.2638ZM53.3746 11.3759H2.45976V6.76405C2.45976 4.36589 4.36589 2.45976 6.76405 2.45976H49.0701C51.4683 2.45976 53.3744 4.36589 53.3744 6.76405L53.3746 11.3759Z" fill="url(#paint0_linear_206_4251)"/>
<path d="M9.9618 7.07183C9.9618 8.80347 8.5575 10.2078 6.82586 10.2078C5.09389 10.2078 3.68958 8.80347 3.68958 7.07183C3.68958 5.33986 5.09389 3.93555 6.82586 3.93555C8.5575 3.93555 9.9618 5.33986 9.9618 7.07183Z" fill="url(#paint1_linear_206_4251)"/>
<path d="M18.5092 7.07183C18.5092 8.80347 17.1053 10.2078 15.3732 10.2078C13.6412 10.2078 12.2369 8.80347 12.2369 7.07183C12.2369 5.33986 13.6412 3.93555 15.3732 3.93555C17.1052 3.93555 18.5092 5.33986 18.5092 7.07183Z" fill="url(#paint2_linear_206_4251)"/>
<path d="M27.0564 7.07183C27.0564 8.80347 25.6525 10.2078 23.9205 10.2078C22.1885 10.2078 20.7842 8.80347 20.7842 7.07183C20.7842 5.33986 22.1885 3.93555 23.9205 3.93555C25.6524 3.93555 27.0564 5.33986 27.0564 7.07183Z" fill="url(#paint3_linear_206_4251)"/>
<path d="M8.79347 35.481C9.03925 35.7268 9.34679 35.8499 9.65433 35.8499C9.96187 35.8499 10.2694 35.7268 10.5152 35.481L17.6483 28.3479C18.1403 27.8559 18.1403 27.1182 17.6483 26.6261L10.5152 19.493C10.0232 19.001 9.28547 19.001 8.79343 19.493C8.30144 19.985 8.30144 20.7227 8.79343 21.2148L15.0039 27.487L8.79343 33.7592C8.30144 34.2512 8.30149 34.9889 8.79347 35.481Z" fill="url(#paint4_linear_206_4251)"/>
<path d="M22.2601 28.7163H33.513C34.1895 28.7163 34.7427 28.1629 34.7427 27.4866C34.7427 26.8102 34.1894 26.2568 33.513 26.2568H22.2601C21.5837 26.2568 21.0304 26.8102 21.0304 27.4866C21.0304 28.1629 21.5837 28.7163 22.2601 28.7163Z" fill="url(#paint5_linear_206_4251)"/>
<defs>
<linearGradient id="paint0_linear_206_4251" x1="13.0862" y1="3.29751" x2="33.1783" y2="50.5881" gradientUnits="userSpaceOnUse">
<stop stop-color="#003399"/>
<stop offset="1" stop-color="#FFB319"/>
</linearGradient>
<linearGradient id="paint1_linear_206_4251" x1="5.15963" y1="4.40596" x2="8.4878" y2="10.5744" gradientUnits="userSpaceOnUse">
<stop stop-color="#003399"/>
<stop offset="1" stop-color="#FFB319"/>
</linearGradient>
<linearGradient id="paint2_linear_206_4251" x1="13.707" y1="4.40596" x2="17.0352" y2="10.5744" gradientUnits="userSpaceOnUse">
<stop stop-color="#003399"/>
<stop offset="1" stop-color="#FFB319"/>
</linearGradient>
<linearGradient id="paint3_linear_206_4251" x1="22.2542" y1="4.40596" x2="25.5824" y2="10.5744" gradientUnits="userSpaceOnUse">
<stop stop-color="#003399"/>
<stop offset="1" stop-color="#FFB319"/>
</linearGradient>
<linearGradient id="paint4_linear_206_4251" x1="10.6728" y1="20.3785" x2="21.2718" y2="31.6452" gradientUnits="userSpaceOnUse">
<stop stop-color="#003399"/>
<stop offset="1" stop-color="#FFB319"/>
</linearGradient>
<linearGradient id="paint5_linear_206_4251" x1="24.2442" y1="26.4413" x2="24.5436" y2="29.5352" gradientUnits="userSpaceOnUse">
<stop stop-color="#003399"/>
<stop offset="1" stop-color="#FFB319"/>
</linearGradient>
</defs>
</svg>
