<svg width="67" height="67" viewBox="0 0 67 67" fill="none" xmlns="http://www.w3.org/2000/svg">
<path d="M16.625 52.3125C18.4484 52.3125 20.197 51.6046 21.4864 50.3446C22.7757 49.0846 23.5 47.3757 23.5 45.5938C23.5 43.8118 22.7757 42.1029 21.4864 40.8429C20.197 39.5829 18.4484 38.875 16.625 38.875C14.8016 38.875 13.053 39.5829 11.7636 40.8429C10.4743 42.1029 9.75 43.8118 9.75 45.5938C9.75 47.3757 10.4743 49.0846 11.7636 50.3446C13.053 51.6046 14.8016 52.3125 16.625 52.3125ZM41.375 28.125C43.1984 28.125 44.947 27.4171 46.2364 26.1571C47.5257 24.8971 48.25 23.1882 48.25 21.4062C48.25 19.6243 47.5257 17.9154 46.2364 16.6554C44.947 15.3954 43.1984 14.6875 41.375 14.6875C39.5516 14.6875 37.803 15.3954 36.5136 16.6554C35.2243 17.9154 34.5 19.6243 34.5 21.4062C34.5 23.1882 35.2243 24.8971 36.5136 26.1571C37.803 27.4171 39.5516 28.125 41.375 28.125ZM41.375 52.3125C39.5516 52.3125 37.803 51.6046 36.5136 50.3446C35.2243 49.0846 34.5 47.3757 34.5 45.5938C34.5 43.8118 35.2243 42.1029 36.5136 40.8429C37.803 39.5829 39.5516 38.875 41.375 38.875C43.1984 38.875 44.947 39.5829 46.2364 40.8429C47.5257 42.1029 48.25 43.8118 48.25 45.5938C48.25 47.3757 47.5257 49.0846 46.2364 50.3446C44.947 51.6046 43.1984 52.3125 41.375 52.3125ZM51 21.4062C51 23.9009 49.9859 26.2935 48.1809 28.0575C46.3759 29.8215 43.9277 30.8125 41.375 30.8125C38.8223 30.8125 36.3741 29.8215 34.5691 28.0575C32.7641 26.2935 31.75 23.9009 31.75 21.4062C31.75 18.9116 32.7641 16.519 34.5691 14.755C36.3741 12.991 38.8223 12 41.375 12C43.9277 12 46.3759 12.991 48.1809 14.755C49.9859 16.519 51 18.9116 51 21.4062ZM26.25 45.5938C26.25 48.0884 25.2359 50.481 23.4309 52.245C21.6259 54.009 19.1777 55 16.625 55C14.0723 55 11.6241 54.009 9.8191 52.245C8.01406 50.481 7 48.0884 7 45.5938C7 43.0991 8.01406 40.7065 9.8191 38.9425C11.6241 37.1785 14.0723 36.1875 16.625 36.1875C19.1777 36.1875 21.6259 37.1785 23.4309 38.9425C25.2359 40.7065 26.25 43.0991 26.25 45.5938ZM41.375 55C43.9277 55 46.3759 54.009 48.1809 52.245C49.9859 50.481 51 48.0884 51 45.5938C51 43.0991 49.9859 40.7065 48.1809 38.9425C46.3759 37.1785 43.9277 36.1875 41.375 36.1875C38.8223 36.1875 36.3741 37.1785 34.5691 38.9425C32.7641 40.7065 31.75 43.0991 31.75 45.5938C31.75 48.0884 32.7641 50.481 34.5691 52.245C36.3741 54.009 38.8223 55 41.375 55ZM16.625 25.4375C16.0833 25.4375 15.5469 25.3332 15.0464 25.1306C14.546 24.9281 14.0912 24.6311 13.7082 24.2568C13.3251 23.8824 13.0213 23.438 12.814 22.9489C12.6067 22.4598 12.5 21.9356 12.5 21.4062C12.5 20.8769 12.6067 20.3527 12.814 19.8636C13.0213 19.3745 13.3251 18.9301 13.7082 18.5557C14.0912 18.1814 14.546 17.8844 15.0464 17.6819C15.5469 17.4793 16.0833 17.375 16.625 17.375C17.719 17.375 18.7682 17.7997 19.5418 18.5557C20.3154 19.3117 20.75 20.3371 20.75 21.4062C20.75 22.4754 20.3154 23.5008 19.5418 24.2568C18.7682 25.0128 17.719 25.4375 16.625 25.4375ZM16.625 30.8125C19.1777 30.8125 21.6259 29.8215 23.4309 28.0575C25.2359 26.2935 26.25 23.9009 26.25 21.4062C26.25 18.9116 25.2359 16.519 23.4309 14.755C21.6259 12.991 19.1777 12 16.625 12C14.0723 12 11.6241 12.991 9.8191 14.755C8.01406 16.519 7 18.9116 7 21.4062C7 23.9009 8.01406 26.2935 9.8191 28.0575C11.6241 29.8215 14.0723 30.8125 16.625 30.8125Z" fill="url(#paint0_linear_206_4273)"/>
<defs>
<linearGradient id="paint0_linear_206_4273" x1="17.3125" y1="15.225" x2="39.8389" y2="57.9466" gradientUnits="userSpaceOnUse">
<stop stop-color="#003399"/>
<stop offset="1" stop-color="#FFB319"/>
</linearGradient>
</defs>
</svg>
