<svg width="53" height="59" viewBox="0 0 53 59" fill="none" xmlns="http://www.w3.org/2000/svg">
<path d="M47.3244 31.2129C49.7235 30.568 51.667 28.7443 52.5278 26.3305C53.3891 23.9167 53.059 21.2181 51.6446 19.1046C50.2298 16.9911 47.9093 15.7303 45.4312 15.7289H43.5379C43.5392 12.7883 42.2732 10.0018 40.0871 8.13372C37.9014 6.26522 35.0252 5.51186 32.2484 6.07955C30.1857 2.60239 26.6485 0.357707 22.729 0.0389655C18.8095 -0.279327 14.979 1.36619 12.4211 4.46831C9.86309 7.57008 8.88522 11.7544 9.79007 15.7299H7.56677C5.08957 15.7321 2.76945 16.993 1.35548 19.1065C-0.0589191 21.2196 -0.388989 23.9178 0.471833 26.3311C1.33266 28.7444 3.27532 30.5677 5.67355 31.2135V48.1823C5.67355 48.5173 5.72849 48.8501 5.83625 49.1658H2.8337C2.31095 49.1658 1.88709 49.6061 1.88709 50.1492C1.88962 52.4958 2.78806 54.7454 4.38506 56.4049C5.98251 58.064 8.14782 58.9973 10.4066 59H42.5914C44.8502 58.9974 47.0156 58.064 48.613 56.4049C50.21 54.7453 51.1083 52.4958 51.1109 50.1492C51.1109 49.8884 51.0112 49.6382 50.8337 49.4538C50.6562 49.2694 50.4153 49.1658 50.1643 49.1658H47.1618C47.2695 48.8501 47.3245 48.5173 47.3245 48.1823L47.3244 31.2129ZM49.1504 51.132C48.9205 52.7696 48.1316 54.2667 46.9276 55.3498C45.7232 56.4333 44.1841 57.0303 42.5913 57.0326H10.4065C8.81372 57.0304 7.27469 56.4333 6.07027 55.3498C4.86629 54.2667 4.0773 52.7696 3.84741 51.132H18.3409L19.4493 53.4347C19.6839 53.926 20.0456 54.3391 20.4948 54.6275C20.9436 54.9155 21.4613 55.0674 21.9891 55.0657H31.0081C31.5359 55.0674 32.0536 54.9155 32.5023 54.6275C32.9515 54.3391 33.3137 53.926 33.5482 53.4347L34.6562 51.132H49.1504ZM23.659 15.7288H23.1045L26.4988 12.2025L29.8931 15.7288H29.3387C28.8159 15.7288 28.392 16.1691 28.392 16.7122V29.4967H24.6056V16.7122C24.6056 16.4514 24.5059 16.2012 24.3284 16.0168C24.1509 15.8324 23.91 15.7288 23.659 15.7288ZM23.659 31.4636H29.3387C29.5897 31.4636 29.8306 31.36 30.008 31.1756C30.1855 30.9912 30.2853 30.7409 30.2853 30.4801V29.4967H41.6446V45.2315H11.353V29.4967H22.7124V30.4801C22.7124 30.7409 22.8121 30.9912 22.9896 31.1756C23.1671 31.36 23.408 31.4636 23.659 31.4636ZM30.2853 27.5299V25.563H41.6446V27.5299H30.2853ZM11.353 27.5299V25.563H22.7124V27.5299H11.353ZM22.7124 23.5962H10.4064C9.88366 23.5962 9.45979 24.0365 9.45979 24.5796V46.2149C9.45979 46.4757 9.55953 46.726 9.73701 46.9103C9.9145 47.0947 10.1554 47.1983 10.4064 47.1983H42.5912C42.8422 47.1983 43.0831 47.0947 43.2606 46.9103C43.4381 46.726 43.5378 46.4757 43.5378 46.2149V24.5796C43.5378 24.3188 43.4381 24.0686 43.2606 23.8842C43.0831 23.6998 42.8422 23.5962 42.5912 23.5962H30.2853V21.6293H44.4845C45.0072 21.6298 45.4306 22.0697 45.4311 22.6128V48.1818C45.4306 48.7248 45.0072 49.1648 44.4845 49.1652H8.51318C7.99043 49.1648 7.56699 48.7248 7.56657 48.1818V22.6128C7.56699 22.0697 7.99043 21.6298 8.51318 21.6293H22.7124V23.5962ZM32.5403 51.132L31.8552 52.5554C31.6955 52.8895 31.3671 53.1002 31.0084 53.0989H21.9894C21.6306 53.1002 21.3018 52.8895 21.1425 52.5554L20.4579 51.132H32.5403ZM44.4849 19.6625H30.2857V17.6956H32.1789C32.5618 17.6956 32.9071 17.4559 33.0537 17.0885C33.1999 16.721 33.1192 16.2982 32.8483 16.0168L27.1686 10.1162C26.9912 9.93186 26.7503 9.82825 26.4992 9.82825C26.2482 9.82825 26.0073 9.93186 25.8299 10.1162L20.1502 16.0168C19.8793 16.2982 19.7986 16.721 19.9448 17.0885C20.0915 17.4559 20.4367 17.6956 20.8196 17.6956H22.7128V19.6625H8.51361C7.76055 19.6634 7.03874 19.9746 6.50669 20.5278C5.97421 21.0805 5.6746 21.8304 5.67376 22.6128V29.1587C3.97656 28.5344 2.6645 27.111 2.13786 25.3224C1.61088 23.5338 1.93164 21.5916 3.00249 20.0879C4.07292 18.5838 5.76627 17.6961 7.56689 17.6957H11.0541C11.3613 17.6957 11.6495 17.5407 11.827 17.2799C12.0041 17.0191 12.0489 16.6855 11.9462 16.3843C10.7697 12.9243 11.3618 9.08019 13.5187 6.17375C15.6756 3.26732 19.1037 1.69519 22.6239 1.99774C26.1445 2.2998 29.2772 4.43529 30.9461 7.67002C31.1552 8.07568 31.6078 8.27588 32.0346 8.15208C34.459 7.44656 37.0627 8.04012 38.9808 9.73522C40.8986 11.4299 41.8794 14.0047 41.5976 16.6042C41.568 16.8822 41.6538 17.16 41.8334 17.3682C42.013 17.5767 42.2691 17.6957 42.5383 17.6957H45.4313C47.2321 17.6961 48.9254 18.5838 49.9957 20.0879C51.0666 21.5916 51.3873 23.5338 50.8604 25.3224C50.3338 27.111 49.0217 28.5343 47.3245 29.1587V22.6128C47.3236 21.8304 47.024 21.0806 46.4915 20.5278C45.9595 19.9746 45.238 19.6634 44.4849 19.6625Z" fill="url(#paint0_linear_206_4263)"/>
<defs>
<linearGradient id="paint0_linear_206_4263" x1="12.4219" y1="4.425" x2="45.489" y2="59.4794" gradientUnits="userSpaceOnUse">
<stop stop-color="#003399"/>
<stop offset="1" stop-color="#FFB319"/>
</linearGradient>
</defs>
</svg>
