<svg width="62" height="62" viewBox="0 0 62 62" fill="none" xmlns="http://www.w3.org/2000/svg">
<path d="M30.0035 3.17593C34.2386 3.16219 38.4235 4.09606 42.2568 5.90935C42.6133 6.0703 42.8908 6.36818 43.0267 6.73721C43.1626 7.10624 43.1455 7.51454 42.98 7.8708C42.8139 8.22658 42.513 8.5009 42.1443 8.63096C41.7757 8.76101 41.3711 8.73646 41.0205 8.56225C37.5738 6.93248 33.8111 6.09429 30.0036 6.1076C23.0606 6.1076 16.4018 8.88713 11.4927 13.8347C6.58316 18.7824 3.82504 25.4927 3.82504 32.4893C3.82504 39.4861 6.58316 46.1965 11.4927 51.1438C16.4022 56.0914 23.0608 58.8709 30.0036 58.8709C36.9465 58.8709 43.6053 56.0914 48.5144 51.1438C53.4239 46.1962 56.1821 39.4859 56.1821 32.4893C56.1952 28.6522 55.3635 24.8602 53.7463 21.3869C53.5734 21.0335 53.5491 20.6257 53.6781 20.2543C53.8072 19.8828 54.0794 19.5795 54.4324 19.4122C54.786 19.2453 55.1911 19.2281 55.5573 19.3651C55.9235 19.502 56.2191 19.7817 56.3788 20.1409C58.1781 24.004 59.1047 28.2213 59.0912 32.4893C59.0912 40.2635 56.0263 47.7192 50.5713 53.2167C45.1164 58.7139 37.7176 61.8021 30.0036 61.8021C22.2892 61.8021 14.8909 58.7139 9.43579 53.2167C3.98088 47.7189 0.916473 40.2631 0.916473 32.4893C0.916473 24.7145 3.98088 17.2594 9.43579 11.7619C14.8912 6.26465 22.2895 3.17593 30.0035 3.17593Z" fill="url(#paint0_linear_206_4236)"/>
<path d="M45.8566 20.7108C46.5359 20.2794 47.4338 20.4846 47.8624 21.1696C50.6205 25.5897 51.6666 30.8793 50.7997 36.0277C49.9334 41.1759 47.2152 45.8223 43.1642 49.0792C39.1137 52.3357 34.0147 53.9743 28.8419 53.6818C23.6691 53.3893 18.7833 51.187 15.1193 47.4946C11.4554 43.8018 9.26992 38.8788 8.97971 33.6655C8.68951 28.4522 10.3155 23.3135 13.5469 19.2308C16.7784 15.1489 21.3888 12.4096 26.4979 11.5366C31.6065 10.6631 36.8555 11.7172 41.2415 14.4966C41.9087 14.9334 42.1039 15.8289 41.6798 16.5072C41.2562 17.1854 40.3699 17.3944 39.6916 16.9768C34.6053 13.7547 28.267 13.2747 22.7602 15.695C17.2531 18.1154 13.2898 23.1223 12.1727 29.0707C11.0552 35.0194 12.9285 41.1403 17.1767 45.4212C21.4244 49.7023 27.4983 51.5901 33.4013 50.464C39.3043 49.3383 44.2726 45.3442 46.674 39.7944C49.0757 34.2452 48.5993 27.8577 45.402 22.7316C44.974 22.047 45.178 21.1421 45.8573 20.7107L45.8566 20.7108Z" fill="url(#paint1_linear_206_4236)"/>
<path d="M39.2683 27.9171V27.9024C39.2747 27.1991 39.7762 26.599 40.4628 26.4733C41.1499 26.3477 41.8287 26.7315 42.0801 27.3881C42.755 29.0026 43.0998 30.7378 43.0934 32.4902C43.0842 36.2821 41.4509 39.8855 38.6139 42.377C35.7763 44.868 32.0107 46.004 28.2821 45.4941C24.553 44.9837 21.2242 42.8775 19.1482 39.7147C17.0724 36.5514 16.4514 32.6398 17.4448 28.9823C18.4387 25.3244 20.9499 22.2769 24.3348 20.6202C27.7201 18.9639 31.6494 18.8599 35.116 20.3351C35.4725 20.4848 35.7549 20.7709 35.9015 21.1306C36.048 21.4898 36.0471 21.8937 35.8985 22.2524C35.5893 22.9993 34.7376 23.3526 33.9965 23.041C32.7323 22.5061 31.3752 22.2308 30.004 22.2303C27.3043 22.2303 24.7146 23.3114 22.8053 25.2351C20.896 27.1592 19.8237 29.769 19.8237 32.4901C19.8237 35.2107 20.8959 37.8205 22.8053 39.7446C24.7146 41.6688 27.3043 42.7494 30.004 42.7494C32.7041 42.7494 35.2938 41.6688 37.2031 39.7446C39.1119 37.8205 40.1848 35.2107 40.1848 32.4901C40.1901 31.116 39.9179 29.7557 39.3847 28.4916C39.3082 28.3101 39.2683 28.1148 39.2683 27.9171Z" fill="url(#paint2_linear_206_4236)"/>
<path d="M30.0035 35.4211C31.0154 35.4309 31.9562 34.899 32.4763 34.0245C32.6686 33.68 32.991 33.4288 33.3703 33.3272C33.7492 33.2256 34.1529 33.283 34.4894 33.4857C34.8263 33.6888 35.0674 34.0201 35.158 34.4043C35.249 34.7891 35.1818 35.1944 34.9719 35.5281C33.9308 37.2918 32.0399 38.3671 30.0036 38.3522C28.4609 38.3522 26.9811 37.7349 25.8903 36.6351C24.799 35.5359 24.1864 34.0446 24.1864 32.4899C24.1708 30.4367 25.2378 28.5298 26.9888 27.48C27.6788 27.0648 28.5719 27.2921 28.9844 27.9874C29.3963 28.6828 29.1709 29.5828 28.4808 29.998C27.6131 30.5221 27.0853 31.4702 27.095 32.4899C27.095 33.2673 27.4013 34.0127 27.9472 34.5623C28.4925 35.1124 29.2322 35.4211 30.0035 35.4211Z" fill="url(#paint3_linear_206_4236)"/>
<path d="M54.3024 17.4034C54.0297 17.6782 53.6596 17.8328 53.2739 17.8328H46.6041L31.7595 32.7926C31.1888 33.3481 30.282 33.3402 29.7207 32.7749C29.1597 32.2091 29.1519 31.2954 29.7031 30.7202L44.5477 15.7604V9.03884C44.5477 8.65017 44.7011 8.27722 44.9738 8.00241L52.2455 0.674266C52.8138 0.102068 53.7341 0.102068 54.3024 0.674266L61.5742 8.00241C62.1419 8.57509 62.1419 9.50253 61.5742 10.0753L54.3024 17.4034ZM53.2739 3.78276L47.4563 9.64557V14.9014H52.6721L58.4898 9.03854L53.2739 3.78276Z" fill="url(#paint4_linear_206_4236)"/>
<defs>
<linearGradient id="paint0_linear_206_4236" x1="45.4566" y1="7.57275" x2="14.2166" y2="65.0274" gradientUnits="userSpaceOnUse">
<stop stop-color="#003399"/>
<stop offset="1" stop-color="#FFB319"/>
</linearGradient>
<linearGradient id="paint1_linear_206_4236" x1="41.2178" y1="14.4231" x2="18.5825" y2="56.0518" gradientUnits="userSpaceOnUse">
<stop stop-color="#003399"/>
<stop offset="1" stop-color="#FFB319"/>
</linearGradient>
<linearGradient id="paint2_linear_206_4236" x1="36.9735" y1="21.2724" x2="22.9511" y2="47.0613" gradientUnits="userSpaceOnUse">
<stop stop-color="#003399"/>
<stop offset="1" stop-color="#FFB319"/>
</linearGradient>
<linearGradient id="paint3_linear_206_4236" x1="32.6168" y1="28.1035" x2="26.7176" y2="38.9695" gradientUnits="userSpaceOnUse">
<stop stop-color="#003399"/>
<stop offset="1" stop-color="#FFB319"/>
</linearGradient>
<linearGradient id="paint4_linear_206_4236" x1="54.3347" y1="2.71704" x2="36.772" y2="35.0174" gradientUnits="userSpaceOnUse">
<stop stop-color="#003399"/>
<stop offset="1" stop-color="#FFB319"/>
</linearGradient>
</defs>
</svg>
