<svg width="44" height="44" viewBox="0 0 44 44" fill="none" xmlns="http://www.w3.org/2000/svg">
<rect x="1.18562" y="21.9629" width="29.041" height="29.8315" rx="14.5205" transform="rotate(-45 1.18562 21.9629)" fill="#003399" stroke="#EBEBEB"/>
<rect width="18.9732" height="18.9732" transform="translate(8.86426 22.5225) rotate(-45)" fill="white" fill-opacity="0.01"/>
<path fill-rule="evenodd" clip-rule="evenodd" d="M18.6947 19.1684C18.6946 19.2722 18.715 19.375 18.7547 19.471C18.7943 19.5669 18.8526 19.6541 18.926 19.7275C18.9994 19.8009 19.0866 19.8591 19.1825 19.8988C19.2784 19.9385 19.3813 19.9589 19.4851 19.9588L23.7257 19.9588L18.3671 25.3174C18.2188 25.4657 18.1355 25.6668 18.1355 25.8764C18.1355 26.0861 18.2188 26.2872 18.3671 26.4354C18.5153 26.5837 18.7164 26.667 18.9261 26.667C19.1358 26.667 19.3368 26.5837 19.4851 26.4354L24.8437 21.0768L24.8437 25.3174C24.8436 25.4213 24.864 25.5241 24.9037 25.62C24.9434 25.716 25.0016 25.8031 25.075 25.8766C25.1484 25.95 25.2356 26.0082 25.3316 26.0479C25.4275 26.0876 25.5303 26.108 25.6342 26.1079C26.0702 26.1079 26.4246 25.7535 26.4251 25.3169L26.4246 19.1684C26.425 18.9663 26.3477 18.7718 26.2088 18.625L26.1769 18.5932C26.0303 18.4545 25.836 18.3775 25.6342 18.378L19.4857 18.3774C19.3818 18.3773 19.2789 18.3978 19.1829 18.4375C19.0869 18.4772 18.9997 18.5355 18.9262 18.6089C18.8528 18.6824 18.7945 18.7696 18.7548 18.8656C18.715 18.9616 18.6946 19.0645 18.6947 19.1684Z" fill="white"/>
</svg>
