<svg width="55" height="55" viewBox="0 0 55 55" fill="none" xmlns="http://www.w3.org/2000/svg">
<mask id="path-1-outside-1_105_702" maskUnits="userSpaceOnUse" x="0" y="0" width="55" height="55" fill="black">
<rect fill="white" width="55" height="55"/>
<path fill-rule="evenodd" clip-rule="evenodd" d="M38.4682 29.3809H39.5424V27.2476H38.4682C38.0192 27.2476 37.6326 26.9301 37.5447 26.4889C37.3073 25.2984 36.8448 24.182 36.17 23.1711C35.9206 22.7976 35.97 22.2996 36.287 21.9818L37.0471 21.2217L35.5389 19.7134L34.7788 20.4735C34.4613 20.7909 33.9629 20.8403 33.5894 20.5909C32.5773 19.9157 31.4605 19.4528 30.2712 19.2154C29.8307 19.1275 29.5133 18.7406 29.5133 18.2912V17.2173H27.3799V18.2912C27.3799 18.7402 27.0625 19.1272 26.6213 19.2154C25.4308 19.4528 24.3148 19.916 23.3031 20.5909C22.9296 20.8403 22.432 20.7909 22.1141 20.4735L21.354 19.7134L19.8458 21.2217L20.6051 21.9818C20.9237 22.2996 20.9727 22.7972 20.7225 23.1711C20.0473 24.1832 19.5844 25.3 19.3482 26.4889C19.2596 26.9294 18.8726 27.2476 18.4232 27.2476L17.3486 27.2479V29.3813H18.4224C18.8722 29.3813 19.2592 29.6987 19.3474 30.1399C19.5837 31.33 20.0462 32.4464 20.7218 33.4578C20.9719 33.8313 20.9229 34.3293 20.6044 34.6471L19.845 35.4065L21.3533 36.9155L22.1134 36.1554C22.4319 35.838 22.9288 35.7882 23.3023 36.038C24.3148 36.714 25.432 37.1768 26.6206 37.4135C27.061 37.5014 27.3792 37.888 27.3792 38.3377V39.4116H29.5126V38.3377C29.5126 37.888 29.8292 37.5017 30.2704 37.4135C31.4609 37.1761 32.578 36.7128 33.5886 36.038C33.9621 35.7886 34.4598 35.838 34.778 36.1554L35.5381 36.9155L37.0464 35.4065L36.2863 34.6471C35.9696 34.3293 35.9202 33.8317 36.1692 33.4578C36.8445 32.4457 37.3074 31.3289 37.544 30.1399C37.6318 29.6984 38.0188 29.3809 38.4682 29.3809ZM39.213 31.2656C38.967 32.1667 38.6099 33.0293 38.1448 33.8409L39.0444 34.7405C39.222 34.917 39.3214 35.1563 39.3214 35.4067C39.3214 35.6565 39.2216 35.8965 39.0444 36.073L36.2036 38.9146C35.8361 39.2821 35.2394 39.2821 34.871 38.9146L33.9726 38.0158C33.1602 38.4798 32.2976 38.8368 31.3962 39.0835V40.3543C31.3962 40.8744 30.9748 41.2965 30.4544 41.2965H26.4366C25.9161 41.2965 25.4944 40.874 25.4944 40.3543V39.0835C24.5929 38.8379 23.7315 38.4805 22.9195 38.0158L22.0199 38.9146C21.8423 39.0914 21.6034 39.1905 21.3533 39.1905C21.1039 39.1905 20.8646 39.0914 20.6874 38.9146L17.8458 36.073C17.4787 35.7047 17.4787 35.1088 17.8458 34.7405L18.7454 33.8409C18.2806 33.0288 17.9236 32.1663 17.6776 31.2656H16.4064C15.886 31.2656 15.4642 30.8431 15.4642 30.3234V26.305C15.4642 25.7845 15.886 25.3628 16.4064 25.3628H17.6776C17.9232 24.4613 18.2807 23.5991 18.7454 22.7875L17.8458 21.8879C17.4787 21.5204 17.4787 20.9237 17.8458 20.5562L20.6874 17.7146C21.0545 17.3471 21.6512 17.3471 22.0199 17.7146L22.9195 18.6134C23.7319 18.1487 24.5933 17.7916 25.4944 17.5464V16.2752C25.4944 15.7548 25.9161 15.333 26.4366 15.333H30.4544C30.9748 15.333 31.3962 15.7555 31.3962 16.2752V17.5464C32.2984 17.792 33.1598 18.1495 33.9726 18.6142L34.8711 17.7146C35.0476 17.5378 35.2876 17.4387 35.5377 17.4387C35.7875 17.4387 36.0271 17.5378 36.2036 17.7146L39.0444 20.5562C39.413 20.9245 39.413 21.5204 39.0444 21.8879L38.1448 22.7875C38.6099 23.5996 38.967 24.4621 39.213 25.3628H40.4842C41.0042 25.3628 41.426 25.7845 41.426 26.305V30.3235C41.426 30.8435 41.0042 31.2656 40.4842 31.2656H39.213ZM33.7629 28.3146C33.7629 31.247 31.3772 33.6327 28.4451 33.6327C25.512 33.6327 23.1271 31.2469 23.1271 28.3146C23.1271 25.3823 25.5125 22.9965 28.4451 22.9965C31.3775 22.9961 33.7629 25.3819 33.7629 28.3146ZM35.6474 28.3146C35.6474 32.286 32.417 35.5175 28.4452 35.5175C24.4731 35.5175 21.2424 32.2863 21.2424 28.3146C21.2424 24.3428 24.4727 21.1117 28.4452 21.1117C32.4166 21.1117 35.6474 24.3428 35.6474 28.3146ZM3.68567 26.7458C3.16859 26.6927 2.79209 26.2302 2.84518 25.7124C2.98651 24.3451 3.23814 22.9804 3.5922 21.655C5.37115 15.0159 9.62852 9.46672 15.5804 6.03153C21.5327 2.59481 28.4655 1.68246 35.1042 3.46141C35.2826 3.50927 35.4617 3.56124 35.6396 3.6132L34.9539 2.40854C34.6971 1.95614 34.8548 1.38038 35.3072 1.12387C35.7593 0.865887 36.3354 1.02404 36.5915 1.47607L38.5121 4.84923C38.6471 5.08514 38.6718 5.36818 38.5828 5.62392C38.4938 5.88078 38.2983 6.08641 38.0466 6.18848L34.4503 7.64554C34.3351 7.69153 34.2151 7.71433 34.097 7.71433C33.7246 7.71433 33.3713 7.49188 33.2228 7.12584C33.0284 6.64353 33.261 6.09395 33.7421 5.89879L34.9984 5.38956C34.8724 5.35367 34.7442 5.31553 34.6174 5.28113C21.9161 1.87801 8.8157 9.44212 5.4121 22.1422C5.08346 23.3708 4.84978 24.6367 4.72004 25.9053C4.66957 26.3898 4.26016 26.7506 3.78421 26.7506C3.75131 26.7506 3.71932 26.7488 3.68567 26.7458ZM53.2992 34.9739C54.6755 29.833 54.4425 24.4836 52.621 19.5026C50.8409 14.6347 47.6875 10.464 43.5016 7.44265C43.0791 7.1383 42.4903 7.23364 42.1859 7.65502C41.8815 8.07751 41.9761 8.66595 42.3986 8.97032C50.3769 14.7281 54.026 24.9814 51.4792 34.4858C50.347 38.7111 48.1295 42.4664 45.0225 45.4604L45.2106 44.1096C45.2835 43.5944 44.9227 43.1181 44.4083 43.0463C43.8927 42.9745 43.416 43.3342 43.3442 43.8487L42.8073 47.6918C42.7703 47.961 42.8507 48.2332 43.0283 48.4384C43.2066 48.6437 43.4642 48.7626 43.7353 48.7645L47.6158 48.788H47.6222C48.1389 48.788 48.5603 48.3704 48.5629 47.8518C48.567 47.3314 48.1475 46.907 47.627 46.904L46.2486 46.8954C49.6457 43.6516 52.0672 39.5702 53.2992 34.9739ZM39.4665 50.5342C39.6804 51.0086 39.4688 51.5665 38.9947 51.78C35.6641 53.2796 32.0558 54.0401 28.4365 54.0401C26.2029 54.0401 23.9663 53.7507 21.7862 53.1663C12.6496 50.7185 5.67177 43.503 3.4512 34.4417L2.75652 35.6288C2.58004 35.9279 2.26561 36.0954 1.94183 36.0954C1.78031 36.0954 1.61581 36.0543 1.46624 35.9664C1.01721 35.7032 0.866537 35.1267 1.12901 34.678L3.08962 31.3291C3.22683 31.0943 3.45939 30.931 3.72634 30.8801C3.99216 30.8285 4.26885 30.8958 4.48195 31.0622L7.54261 33.4491C7.95277 33.7692 8.02567 34.361 7.70599 34.7715C7.3867 35.182 6.79372 35.2549 6.38361 34.9349L5.30605 34.0951C7.39157 42.4454 13.8403 49.0888 22.2733 51.3476C27.5664 52.7657 33.2297 52.3097 38.2203 50.063C38.6951 49.8476 39.2538 50.0597 39.4665 50.5342Z"/>
</mask>
<path fill-rule="evenodd" clip-rule="evenodd" d="M38.4682 29.3809H39.5424V27.2476H38.4682C38.0192 27.2476 37.6326 26.9301 37.5447 26.4889C37.3073 25.2984 36.8448 24.182 36.17 23.1711C35.9206 22.7976 35.97 22.2996 36.287 21.9818L37.0471 21.2217L35.5389 19.7134L34.7788 20.4735C34.4613 20.7909 33.9629 20.8403 33.5894 20.5909C32.5773 19.9157 31.4605 19.4528 30.2712 19.2154C29.8307 19.1275 29.5133 18.7406 29.5133 18.2912V17.2173H27.3799V18.2912C27.3799 18.7402 27.0625 19.1272 26.6213 19.2154C25.4308 19.4528 24.3148 19.916 23.3031 20.5909C22.9296 20.8403 22.432 20.7909 22.1141 20.4735L21.354 19.7134L19.8458 21.2217L20.6051 21.9818C20.9237 22.2996 20.9727 22.7972 20.7225 23.1711C20.0473 24.1832 19.5844 25.3 19.3482 26.4889C19.2596 26.9294 18.8726 27.2476 18.4232 27.2476L17.3486 27.2479V29.3813H18.4224C18.8722 29.3813 19.2592 29.6987 19.3474 30.1399C19.5837 31.33 20.0462 32.4464 20.7218 33.4578C20.9719 33.8313 20.9229 34.3293 20.6044 34.6471L19.845 35.4065L21.3533 36.9155L22.1134 36.1554C22.4319 35.838 22.9288 35.7882 23.3023 36.038C24.3148 36.714 25.432 37.1768 26.6206 37.4135C27.061 37.5014 27.3792 37.888 27.3792 38.3377V39.4116H29.5126V38.3377C29.5126 37.888 29.8292 37.5017 30.2704 37.4135C31.4609 37.1761 32.578 36.7128 33.5886 36.038C33.9621 35.7886 34.4598 35.838 34.778 36.1554L35.5381 36.9155L37.0464 35.4065L36.2863 34.6471C35.9696 34.3293 35.9202 33.8317 36.1692 33.4578C36.8445 32.4457 37.3074 31.3289 37.544 30.1399C37.6318 29.6984 38.0188 29.3809 38.4682 29.3809ZM39.213 31.2656C38.967 32.1667 38.6099 33.0293 38.1448 33.8409L39.0444 34.7405C39.222 34.917 39.3214 35.1563 39.3214 35.4067C39.3214 35.6565 39.2216 35.8965 39.0444 36.073L36.2036 38.9146C35.8361 39.2821 35.2394 39.2821 34.871 38.9146L33.9726 38.0158C33.1602 38.4798 32.2976 38.8368 31.3962 39.0835V40.3543C31.3962 40.8744 30.9748 41.2965 30.4544 41.2965H26.4366C25.9161 41.2965 25.4944 40.874 25.4944 40.3543V39.0835C24.5929 38.8379 23.7315 38.4805 22.9195 38.0158L22.0199 38.9146C21.8423 39.0914 21.6034 39.1905 21.3533 39.1905C21.1039 39.1905 20.8646 39.0914 20.6874 38.9146L17.8458 36.073C17.4787 35.7047 17.4787 35.1088 17.8458 34.7405L18.7454 33.8409C18.2806 33.0288 17.9236 32.1663 17.6776 31.2656H16.4064C15.886 31.2656 15.4642 30.8431 15.4642 30.3234V26.305C15.4642 25.7845 15.886 25.3628 16.4064 25.3628H17.6776C17.9232 24.4613 18.2807 23.5991 18.7454 22.7875L17.8458 21.8879C17.4787 21.5204 17.4787 20.9237 17.8458 20.5562L20.6874 17.7146C21.0545 17.3471 21.6512 17.3471 22.0199 17.7146L22.9195 18.6134C23.7319 18.1487 24.5933 17.7916 25.4944 17.5464V16.2752C25.4944 15.7548 25.9161 15.333 26.4366 15.333H30.4544C30.9748 15.333 31.3962 15.7555 31.3962 16.2752V17.5464C32.2984 17.792 33.1598 18.1495 33.9726 18.6142L34.8711 17.7146C35.0476 17.5378 35.2876 17.4387 35.5377 17.4387C35.7875 17.4387 36.0271 17.5378 36.2036 17.7146L39.0444 20.5562C39.413 20.9245 39.413 21.5204 39.0444 21.8879L38.1448 22.7875C38.6099 23.5996 38.967 24.4621 39.213 25.3628H40.4842C41.0042 25.3628 41.426 25.7845 41.426 26.305V30.3235C41.426 30.8435 41.0042 31.2656 40.4842 31.2656H39.213ZM33.7629 28.3146C33.7629 31.247 31.3772 33.6327 28.4451 33.6327C25.512 33.6327 23.1271 31.2469 23.1271 28.3146C23.1271 25.3823 25.5125 22.9965 28.4451 22.9965C31.3775 22.9961 33.7629 25.3819 33.7629 28.3146ZM35.6474 28.3146C35.6474 32.286 32.417 35.5175 28.4452 35.5175C24.4731 35.5175 21.2424 32.2863 21.2424 28.3146C21.2424 24.3428 24.4727 21.1117 28.4452 21.1117C32.4166 21.1117 35.6474 24.3428 35.6474 28.3146ZM3.68567 26.7458C3.16859 26.6927 2.79209 26.2302 2.84518 25.7124C2.98651 24.3451 3.23814 22.9804 3.5922 21.655C5.37115 15.0159 9.62852 9.46672 15.5804 6.03153C21.5327 2.59481 28.4655 1.68246 35.1042 3.46141C35.2826 3.50927 35.4617 3.56124 35.6396 3.6132L34.9539 2.40854C34.6971 1.95614 34.8548 1.38038 35.3072 1.12387C35.7593 0.865887 36.3354 1.02404 36.5915 1.47607L38.5121 4.84923C38.6471 5.08514 38.6718 5.36818 38.5828 5.62392C38.4938 5.88078 38.2983 6.08641 38.0466 6.18848L34.4503 7.64554C34.3351 7.69153 34.2151 7.71433 34.097 7.71433C33.7246 7.71433 33.3713 7.49188 33.2228 7.12584C33.0284 6.64353 33.261 6.09395 33.7421 5.89879L34.9984 5.38956C34.8724 5.35367 34.7442 5.31553 34.6174 5.28113C21.9161 1.87801 8.8157 9.44212 5.4121 22.1422C5.08346 23.3708 4.84978 24.6367 4.72004 25.9053C4.66957 26.3898 4.26016 26.7506 3.78421 26.7506C3.75131 26.7506 3.71932 26.7488 3.68567 26.7458ZM53.2992 34.9739C54.6755 29.833 54.4425 24.4836 52.621 19.5026C50.8409 14.6347 47.6875 10.464 43.5016 7.44265C43.0791 7.1383 42.4903 7.23364 42.1859 7.65502C41.8815 8.07751 41.9761 8.66595 42.3986 8.97032C50.3769 14.7281 54.026 24.9814 51.4792 34.4858C50.347 38.7111 48.1295 42.4664 45.0225 45.4604L45.2106 44.1096C45.2835 43.5944 44.9227 43.1181 44.4083 43.0463C43.8927 42.9745 43.416 43.3342 43.3442 43.8487L42.8073 47.6918C42.7703 47.961 42.8507 48.2332 43.0283 48.4384C43.2066 48.6437 43.4642 48.7626 43.7353 48.7645L47.6158 48.788H47.6222C48.1389 48.788 48.5603 48.3704 48.5629 47.8518C48.567 47.3314 48.1475 46.907 47.627 46.904L46.2486 46.8954C49.6457 43.6516 52.0672 39.5702 53.2992 34.9739ZM39.4665 50.5342C39.6804 51.0086 39.4688 51.5665 38.9947 51.78C35.6641 53.2796 32.0558 54.0401 28.4365 54.0401C26.2029 54.0401 23.9663 53.7507 21.7862 53.1663C12.6496 50.7185 5.67177 43.503 3.4512 34.4417L2.75652 35.6288C2.58004 35.9279 2.26561 36.0954 1.94183 36.0954C1.78031 36.0954 1.61581 36.0543 1.46624 35.9664C1.01721 35.7032 0.866537 35.1267 1.12901 34.678L3.08962 31.3291C3.22683 31.0943 3.45939 30.931 3.72634 30.8801C3.99216 30.8285 4.26885 30.8958 4.48195 31.0622L7.54261 33.4491C7.95277 33.7692 8.02567 34.361 7.70599 34.7715C7.3867 35.182 6.79372 35.2549 6.38361 34.9349L5.30605 34.0951C7.39157 42.4454 13.8403 49.0888 22.2733 51.3476C27.5664 52.7657 33.2297 52.3097 38.2203 50.063C38.6951 49.8476 39.2538 50.0597 39.4665 50.5342Z" fill="url(#paint0_linear_105_702)"/>
<path fill-rule="evenodd" clip-rule="evenodd" d="M38.4682 29.3809H39.5424V27.2476H38.4682C38.0192 27.2476 37.6326 26.9301 37.5447 26.4889C37.3073 25.2984 36.8448 24.182 36.17 23.1711C35.9206 22.7976 35.97 22.2996 36.287 21.9818L37.0471 21.2217L35.5389 19.7134L34.7788 20.4735C34.4613 20.7909 33.9629 20.8403 33.5894 20.5909C32.5773 19.9157 31.4605 19.4528 30.2712 19.2154C29.8307 19.1275 29.5133 18.7406 29.5133 18.2912V17.2173H27.3799V18.2912C27.3799 18.7402 27.0625 19.1272 26.6213 19.2154C25.4308 19.4528 24.3148 19.916 23.3031 20.5909C22.9296 20.8403 22.432 20.7909 22.1141 20.4735L21.354 19.7134L19.8458 21.2217L20.6051 21.9818C20.9237 22.2996 20.9727 22.7972 20.7225 23.1711C20.0473 24.1832 19.5844 25.3 19.3482 26.4889C19.2596 26.9294 18.8726 27.2476 18.4232 27.2476L17.3486 27.2479V29.3813H18.4224C18.8722 29.3813 19.2592 29.6987 19.3474 30.1399C19.5837 31.33 20.0462 32.4464 20.7218 33.4578C20.9719 33.8313 20.9229 34.3293 20.6044 34.6471L19.845 35.4065L21.3533 36.9155L22.1134 36.1554C22.4319 35.838 22.9288 35.7882 23.3023 36.038C24.3148 36.714 25.432 37.1768 26.6206 37.4135C27.061 37.5014 27.3792 37.888 27.3792 38.3377V39.4116H29.5126V38.3377C29.5126 37.888 29.8292 37.5017 30.2704 37.4135C31.4609 37.1761 32.578 36.7128 33.5886 36.038C33.9621 35.7886 34.4598 35.838 34.778 36.1554L35.5381 36.9155L37.0464 35.4065L36.2863 34.6471C35.9696 34.3293 35.9202 33.8317 36.1692 33.4578C36.8445 32.4457 37.3074 31.3289 37.544 30.1399C37.6318 29.6984 38.0188 29.3809 38.4682 29.3809ZM39.213 31.2656C38.967 32.1667 38.6099 33.0293 38.1448 33.8409L39.0444 34.7405C39.222 34.917 39.3214 35.1563 39.3214 35.4067C39.3214 35.6565 39.2216 35.8965 39.0444 36.073L36.2036 38.9146C35.8361 39.2821 35.2394 39.2821 34.871 38.9146L33.9726 38.0158C33.1602 38.4798 32.2976 38.8368 31.3962 39.0835V40.3543C31.3962 40.8744 30.9748 41.2965 30.4544 41.2965H26.4366C25.9161 41.2965 25.4944 40.874 25.4944 40.3543V39.0835C24.5929 38.8379 23.7315 38.4805 22.9195 38.0158L22.0199 38.9146C21.8423 39.0914 21.6034 39.1905 21.3533 39.1905C21.1039 39.1905 20.8646 39.0914 20.6874 38.9146L17.8458 36.073C17.4787 35.7047 17.4787 35.1088 17.8458 34.7405L18.7454 33.8409C18.2806 33.0288 17.9236 32.1663 17.6776 31.2656H16.4064C15.886 31.2656 15.4642 30.8431 15.4642 30.3234V26.305C15.4642 25.7845 15.886 25.3628 16.4064 25.3628H17.6776C17.9232 24.4613 18.2807 23.5991 18.7454 22.7875L17.8458 21.8879C17.4787 21.5204 17.4787 20.9237 17.8458 20.5562L20.6874 17.7146C21.0545 17.3471 21.6512 17.3471 22.0199 17.7146L22.9195 18.6134C23.7319 18.1487 24.5933 17.7916 25.4944 17.5464V16.2752C25.4944 15.7548 25.9161 15.333 26.4366 15.333H30.4544C30.9748 15.333 31.3962 15.7555 31.3962 16.2752V17.5464C32.2984 17.792 33.1598 18.1495 33.9726 18.6142L34.8711 17.7146C35.0476 17.5378 35.2876 17.4387 35.5377 17.4387C35.7875 17.4387 36.0271 17.5378 36.2036 17.7146L39.0444 20.5562C39.413 20.9245 39.413 21.5204 39.0444 21.8879L38.1448 22.7875C38.6099 23.5996 38.967 24.4621 39.213 25.3628H40.4842C41.0042 25.3628 41.426 25.7845 41.426 26.305V30.3235C41.426 30.8435 41.0042 31.2656 40.4842 31.2656H39.213ZM33.7629 28.3146C33.7629 31.247 31.3772 33.6327 28.4451 33.6327C25.512 33.6327 23.1271 31.2469 23.1271 28.3146C23.1271 25.3823 25.5125 22.9965 28.4451 22.9965C31.3775 22.9961 33.7629 25.3819 33.7629 28.3146ZM35.6474 28.3146C35.6474 32.286 32.417 35.5175 28.4452 35.5175C24.4731 35.5175 21.2424 32.2863 21.2424 28.3146C21.2424 24.3428 24.4727 21.1117 28.4452 21.1117C32.4166 21.1117 35.6474 24.3428 35.6474 28.3146ZM3.68567 26.7458C3.16859 26.6927 2.79209 26.2302 2.84518 25.7124C2.98651 24.3451 3.23814 22.9804 3.5922 21.655C5.37115 15.0159 9.62852 9.46672 15.5804 6.03153C21.5327 2.59481 28.4655 1.68246 35.1042 3.46141C35.2826 3.50927 35.4617 3.56124 35.6396 3.6132L34.9539 2.40854C34.6971 1.95614 34.8548 1.38038 35.3072 1.12387C35.7593 0.865887 36.3354 1.02404 36.5915 1.47607L38.5121 4.84923C38.6471 5.08514 38.6718 5.36818 38.5828 5.62392C38.4938 5.88078 38.2983 6.08641 38.0466 6.18848L34.4503 7.64554C34.3351 7.69153 34.2151 7.71433 34.097 7.71433C33.7246 7.71433 33.3713 7.49188 33.2228 7.12584C33.0284 6.64353 33.261 6.09395 33.7421 5.89879L34.9984 5.38956C34.8724 5.35367 34.7442 5.31553 34.6174 5.28113C21.9161 1.87801 8.8157 9.44212 5.4121 22.1422C5.08346 23.3708 4.84978 24.6367 4.72004 25.9053C4.66957 26.3898 4.26016 26.7506 3.78421 26.7506C3.75131 26.7506 3.71932 26.7488 3.68567 26.7458ZM53.2992 34.9739C54.6755 29.833 54.4425 24.4836 52.621 19.5026C50.8409 14.6347 47.6875 10.464 43.5016 7.44265C43.0791 7.1383 42.4903 7.23364 42.1859 7.65502C41.8815 8.07751 41.9761 8.66595 42.3986 8.97032C50.3769 14.7281 54.026 24.9814 51.4792 34.4858C50.347 38.7111 48.1295 42.4664 45.0225 45.4604L45.2106 44.1096C45.2835 43.5944 44.9227 43.1181 44.4083 43.0463C43.8927 42.9745 43.416 43.3342 43.3442 43.8487L42.8073 47.6918C42.7703 47.961 42.8507 48.2332 43.0283 48.4384C43.2066 48.6437 43.4642 48.7626 43.7353 48.7645L47.6158 48.788H47.6222C48.1389 48.788 48.5603 48.3704 48.5629 47.8518C48.567 47.3314 48.1475 46.907 47.627 46.904L46.2486 46.8954C49.6457 43.6516 52.0672 39.5702 53.2992 34.9739ZM39.4665 50.5342C39.6804 51.0086 39.4688 51.5665 38.9947 51.78C35.6641 53.2796 32.0558 54.0401 28.4365 54.0401C26.2029 54.0401 23.9663 53.7507 21.7862 53.1663C12.6496 50.7185 5.67177 43.503 3.4512 34.4417L2.75652 35.6288C2.58004 35.9279 2.26561 36.0954 1.94183 36.0954C1.78031 36.0954 1.61581 36.0543 1.46624 35.9664C1.01721 35.7032 0.866537 35.1267 1.12901 34.678L3.08962 31.3291C3.22683 31.0943 3.45939 30.931 3.72634 30.8801C3.99216 30.8285 4.26885 30.8958 4.48195 31.0622L7.54261 33.4491C7.95277 33.7692 8.02567 34.361 7.70599 34.7715C7.3867 35.182 6.79372 35.2549 6.38361 34.9349L5.30605 34.0951C7.39157 42.4454 13.8403 49.0888 22.2733 51.3476C27.5664 52.7657 33.2297 52.3097 38.2203 50.063C38.6951 49.8476 39.2538 50.0597 39.4665 50.5342Z" stroke="url(#paint1_linear_105_702)" stroke-width="1.4" mask="url(#path-1-outside-1_105_702)"/>
<defs>
<linearGradient id="paint0_linear_105_702" x1="6.59082" y1="6.7207" x2="45.5908" y2="50.7207" gradientUnits="userSpaceOnUse">
<stop stop-color="#003399"/>
<stop offset="1" stop-color="#FFB319"/>
</linearGradient>
<linearGradient id="paint1_linear_105_702" x1="8.09082" y1="3.2207" x2="44.5908" y2="49.7207" gradientUnits="userSpaceOnUse">
<stop stop-color="#003399"/>
<stop offset="1" stop-color="#FFB319"/>
</linearGradient>
</defs>
</svg>
