<svg width="66" height="62" viewBox="0 0 66 62" fill="none" xmlns="http://www.w3.org/2000/svg">
<path d="M56.2815 6.83829V6.83824C56.1473 6.83824 56.0154 6.84105 55.8855 6.84671C53.775 2.97025 49.6821 0.50957 45.2278 0.50957C38.8917 0.50957 33.6736 5.39723 33.145 11.6033C32.6927 11.5087 32.2314 11.4604 31.7701 11.4604C28.0698 11.4604 25.0594 14.4706 25.0594 18.1711C25.0594 21.8668 28.0688 24.8737 31.7699 24.8755H31.7701H56.2789C56.2933 24.8755 56.3208 24.8757 56.3508 24.8735C61.2913 24.8368 65.2987 20.8059 65.2987 15.8562C65.2987 10.8836 61.2534 6.83839 56.2815 6.83829ZM56.2783 22.5072C56.2652 22.5072 56.2404 22.5072 56.2134 22.5091L31.7693 22.5072C29.374 22.5072 27.425 20.561 27.425 18.1704C27.425 15.7756 29.3744 13.8262 31.7692 13.8262C32.4546 13.8262 33.1449 13.9923 33.7643 14.3074C34.1429 14.501 34.5939 14.4734 34.9476 14.2445L34.9481 14.2441C35.3051 14.0119 35.5082 13.6069 35.4826 13.1829L35.4825 13.1813C35.4706 13.0004 35.4653 12.8258 35.4653 12.6427C35.4653 7.25713 39.8435 2.87612 45.2264 2.87612C49.0403 2.87612 52.5286 5.11971 54.1119 8.5913L54.1121 8.59174C54.3326 9.07326 54.8389 9.34616 55.3645 9.27084L55.3668 9.27049C55.6472 9.22803 55.9542 9.2061 56.2812 9.2061C59.9471 9.2061 62.9315 12.19 62.9315 15.857C62.9315 19.5247 59.9473 22.5072 56.2815 22.5073V22.5072L56.2783 22.5072Z" fill="url(#paint0_linear_206_6347)" stroke="url(#paint1_linear_206_6347)" stroke-width="0.6"/>
<path d="M48.4326 48.5174C48.4333 48.5091 48.4337 48.5001 48.4337 48.4906V48.4739L48.4326 48.4637V30.4106V30.4078C48.4326 30.3334 48.4326 30.1884 48.3974 30.0196C48.3974 30.0194 48.3974 30.0192 48.3973 30.019L48.1037 30.0804C48.0057 29.6023 47.5331 29.28 47.0581 29.3811M48.4326 48.5174L46.9968 29.0874M48.4326 48.5174V48.5918L48.43 48.5946V49.8023C48.43 53.5532 45.3791 56.6048 41.6264 56.6048H25.9521V59.2986H33.9487C34.603 59.2986 35.1322 59.8278 35.1322 60.4821C35.1322 61.1364 34.603 61.6656 33.9487 61.6656H15.5912C14.9377 61.6656 14.4077 61.1365 14.4077 60.4821C14.4077 59.8275 14.9384 59.2986 15.5912 59.2986H23.5878V56.6048H7.90715C4.15621 56.6048 1.10527 53.5537 1.10527 49.8023V30.4101C1.10527 26.6592 4.15639 23.6082 7.90715 23.6082H19.7833C20.4371 23.6082 20.9668 24.1388 20.9668 24.7917C20.9668 25.4455 20.4362 25.9752 19.7833 25.9752H7.90715C5.46186 25.9752 3.47179 27.9651 3.47179 30.4106V47.3073M47.0581 29.3811L46.9979 29.0872C46.9975 29.0873 46.9972 29.0873 46.9968 29.0874M47.0581 29.3811L46.9957 29.0876C46.9961 29.0876 46.9964 29.0875 46.9968 29.0874M47.0581 29.3811C46.58 29.479 46.2676 29.9331 46.3662 30.4112H46.0662V30.4396C45.9532 29.8049 46.3742 29.2156 46.9968 29.0874" fill="url(#paint2_linear_206_6347)" stroke="url(#paint3_linear_206_6347)" stroke-width="0.6"/>
<path d="M24.3724 44.5149L24.3705 44.5141C24.2888 44.4789 24.2196 44.4241 24.1682 44.3834C24.1614 44.378 24.1548 44.3728 24.1486 44.368C24.145 44.3655 24.1416 44.3635 24.1327 44.3586C24.1286 44.3563 24.1233 44.3534 24.1164 44.3495C24.0975 44.3387 24.0665 44.3206 24.0374 44.2914C24.0322 44.2863 24.0278 44.2812 24.024 44.2762L18.2929 38.5451C18.2929 38.5451 18.2928 38.5451 18.2928 38.545C17.8885 38.1414 17.8887 37.4882 18.2928 37.084C18.6965 36.6797 19.3497 36.6799 19.7538 37.084L23.7358 41.0656V30.8835C23.7358 30.3119 24.1993 29.85 24.7693 29.85C25.3401 29.85 25.8029 30.312 25.8029 30.8835V41.0649L29.7874 37.0804L24.3724 44.5149ZM24.3724 44.5149C24.4989 44.5674 24.6324 44.5941 24.7682 44.5941H24.7688H24.7694C24.9038 44.5941 25.0386 44.5674 25.1648 44.5148L25.165 44.5147M24.3724 44.5149L25.165 44.5147M25.165 44.5147C25.294 44.4607 25.4082 44.3823 25.5047 44.2851M25.165 44.5147L25.5047 44.2851M25.5047 44.2851C25.5048 44.285 25.5048 44.285 25.5049 44.2849M25.5047 44.2851L25.5049 44.2849M25.5049 44.2849L31.2485 38.5413C31.6527 38.1371 31.6528 37.4839 31.2484 37.0802M25.5049 44.2849L29.8936 37.1863L29.7875 37.0803C30.1912 36.676 30.8443 36.6761 31.2484 37.0802M31.2484 37.0802C31.2485 37.0802 31.2485 37.0802 31.2485 37.0803L31.1425 37.1863L31.2484 37.0802ZM24.0074 44.2497L24.0076 44.25L24.0074 44.2497Z" fill="url(#paint4_linear_206_6347)" stroke="url(#paint5_linear_206_6347)" stroke-width="0.3"/>
<defs>
<linearGradient id="paint0_linear_206_6347" x1="29.5264" y1="3.37287" x2="44.1369" y2="30.7919" gradientUnits="userSpaceOnUse">
<stop stop-color="#003399"/>
<stop offset="1" stop-color="#FFB319"/>
</linearGradient>
<linearGradient id="paint1_linear_206_6347" x1="30.6444" y1="1.80461" x2="43.6404" y2="29.3449" gradientUnits="userSpaceOnUse">
<stop stop-color="#003399"/>
<stop offset="1" stop-color="#FFB319"/>
</linearGradient>
<linearGradient id="paint2_linear_206_6347" x1="6.31752" y1="27.9482" x2="32.5384" y2="64.7532" gradientUnits="userSpaceOnUse">
<stop stop-color="#003399"/>
<stop offset="1" stop-color="#FFB319"/>
</linearGradient>
<linearGradient id="paint3_linear_206_6347" x1="7.63545" y1="25.4765" x2="31.5858" y2="63.4379" gradientUnits="userSpaceOnUse">
<stop stop-color="#003399"/>
<stop offset="1" stop-color="#FFB319"/>
</linearGradient>
<linearGradient id="paint4_linear_206_6347" x1="19.5338" y1="31.5579" x2="30.2262" y2="42.604" gradientUnits="userSpaceOnUse">
<stop stop-color="#003399"/>
<stop offset="1" stop-color="#FFB319"/>
</linearGradient>
<linearGradient id="paint5_linear_206_6347" x1="19.9078" y1="30.6048" x2="30.0203" y2="42.4015" gradientUnits="userSpaceOnUse">
<stop stop-color="#003399"/>
<stop offset="1" stop-color="#FFB319"/>
</linearGradient>
</defs>
</svg>
