<svg width="64" height="63" viewBox="0 0 64 63" fill="none" xmlns="http://www.w3.org/2000/svg">
<path d="M11.7522 19.418H5.66504C5.26229 19.418 4.92871 19.752 4.92871 20.1543V25.3285C4.92871 25.7312 5.26274 26.0648 5.66504 26.0648H11.7522C12.1549 26.0648 12.4885 25.7308 12.4885 25.3285V20.1543C12.4885 19.752 12.1545 19.418 11.7522 19.418ZM11.0159 24.5921H6.40129V20.8907H11.0159V24.5921Z" fill="url(#paint0_linear_206_6368)"/>
<path d="M23.7297 19.4189H17.6426C17.2398 19.4189 16.9062 19.753 16.9062 20.1553V25.3294C16.9062 25.7322 17.2403 26.0658 17.6426 26.0658H23.7297C24.1325 26.0658 24.4661 25.7317 24.4661 25.3294V20.1553C24.4661 19.753 24.142 19.4189 23.7297 19.4189ZM22.9934 24.5931H18.3788V20.8916H22.9934V24.5931Z" fill="url(#paint1_linear_206_6368)"/>
<path d="M29.6201 26.0648H35.7073C36.11 26.0648 36.4436 25.7308 36.4436 25.3285V20.1543C36.4436 19.7516 36.1096 19.418 35.7073 19.418H29.6201C29.2174 19.418 28.8838 19.752 28.8838 20.1543V25.3285C28.8838 25.7411 29.2178 26.0648 29.6201 26.0648ZM30.3569 20.8906H34.9715V24.5921H30.3569V20.8906Z" fill="url(#paint2_linear_206_6368)"/>
<path d="M41.5977 26.0648H47.6848C48.0875 26.0648 48.4211 25.7308 48.4211 25.3285V20.1543C48.4211 19.7516 48.0871 19.418 47.6848 19.418H41.5977C41.1949 19.418 40.8613 19.752 40.8613 20.1543V25.3285C40.8613 25.7411 41.1954 26.0648 41.5977 26.0648ZM42.334 20.8906H46.9485V24.5921H42.334V20.8906Z" fill="url(#paint3_linear_206_6368)"/>
<path d="M11.7522 27.5381H5.66504C5.26229 27.5381 4.92871 27.8721 4.92871 28.2744V33.4486C4.92871 33.8513 5.26274 34.1849 5.66504 34.1849H11.7522C12.1549 34.1849 12.4885 33.8509 12.4885 33.4486V28.2744C12.4885 27.8717 12.1545 27.5381 11.7522 27.5381ZM11.0159 32.7217H6.40129V29.0203H11.0159V32.7217Z" fill="url(#paint4_linear_206_6368)"/>
<path d="M23.7297 27.5381H17.6426C17.2398 27.5381 16.9062 27.8721 16.9062 28.2744V33.4486C16.9062 33.8513 17.2403 34.1849 17.6426 34.1849H23.7297C24.1325 34.1849 24.4661 33.8509 24.4661 33.4486V28.2744C24.4661 27.8717 24.142 27.5381 23.7297 27.5381ZM22.9934 32.7217H18.3788V29.0203H22.9934V32.7217Z" fill="url(#paint5_linear_206_6368)"/>
<path d="M11.7522 35.667H5.66504C5.26229 35.667 4.92871 36.001 4.92871 36.4033V41.5775C4.92871 41.9802 5.26274 42.3138 5.66504 42.3138H11.7522C12.1549 42.3138 12.4885 41.9798 12.4885 41.5775V36.4033C12.4885 35.9911 12.1545 35.667 11.7522 35.667ZM11.0159 40.8412H6.40129V37.1397H11.0159V40.8412Z" fill="url(#paint6_linear_206_6368)"/>
<path d="M23.7297 35.667H17.6426C17.2398 35.667 16.9062 36.001 16.9062 36.4033V41.5775C16.9062 41.9802 17.2403 42.3138 17.6426 42.3138H23.7297C24.1325 42.3138 24.4661 41.9798 24.4661 41.5775V36.4033C24.4661 35.9911 24.142 35.667 23.7297 35.667ZM22.9934 40.8412H18.3788V37.1397H22.9934V40.8412Z" fill="url(#paint7_linear_206_6368)"/>
<path d="M11.7522 43.7871H5.66504C5.26229 43.7871 4.92871 44.1211 4.92871 44.5234V49.6976C4.92871 50.1003 5.26274 50.4339 5.66504 50.4339H11.7522C12.1549 50.4339 12.4885 50.0999 12.4885 49.6976V44.5234C12.4885 44.1112 12.1545 43.7871 11.7522 43.7871ZM11.0159 48.9613H6.40129V45.2598H11.0159V48.9613Z" fill="url(#paint8_linear_206_6368)"/>
<path d="M23.7297 43.7871H17.6426C17.2398 43.7871 16.9062 44.1211 16.9062 44.5234V49.6976C16.9062 50.1003 17.2403 50.4339 17.6426 50.4339H23.7297C24.1325 50.4339 24.4661 50.0999 24.4661 49.6976V44.5234C24.4661 44.1112 24.142 43.7871 23.7297 43.7871ZM22.9934 48.9613H18.3788V45.2598H22.9934V48.9613Z" fill="url(#paint9_linear_206_6368)"/>
<path d="M29.6201 34.1956H35.7073C36.11 34.1956 36.4436 33.8616 36.4436 33.4593V28.2852C36.4436 27.8824 36.1096 27.5488 35.7073 27.5488H29.6201C29.2174 27.5488 28.8838 27.8829 28.8838 28.2852V33.4593C28.8838 33.8616 29.2178 34.1956 29.6201 34.1956ZM30.3569 29.0115H34.9715V32.713H30.3569V29.0115Z" fill="url(#paint10_linear_206_6368)"/>
<mask id="path-12-outside-1_206_6368" maskUnits="userSpaceOnUse" x="0" y="0" width="64" height="63" fill="black">
<rect fill="white" width="64" height="63"/>
<path d="M52.3491 32.2605V7.97086C52.3491 6.47838 51.1413 5.27101 49.6493 5.27101H43.7976V3.42502C43.7976 2.0898 42.7078 1 41.3626 1C40.0274 1 38.9376 2.0898 38.9376 3.42502V5.27101H34.0089V3.42502C34.0089 2.0898 32.9191 1 31.5839 1C30.2486 1 29.1588 2.0898 29.1588 3.42502V5.27101H24.2301V3.42502C24.2301 2.0898 23.1403 1 21.7951 1C20.4599 1 19.3701 2.0898 19.3701 3.42502V5.27101H14.4414L14.4409 3.42502C14.4409 2.0898 13.3511 1 12.0159 1C10.6807 1 9.56147 2.0898 9.56147 3.42502V5.27101H3.69985C2.20736 5.27101 1 6.47884 1 7.97086V51.6623C1 53.1547 2.20783 54.3621 3.69985 54.3621H34.0968C36.7085 59.2809 41.8727 62.6388 47.8229 62.6388C56.3843 62.6388 63.3552 55.6679 63.3552 47.1065C63.3457 40.1257 58.7112 34.2055 52.3493 32.2615L52.3491 32.2605ZM40.4097 3.42445C40.4097 2.89424 40.8419 2.47206 41.3621 2.47206C41.8824 2.47206 42.3244 2.90418 42.3244 3.42445V8.58866C42.3244 9.11886 41.8923 9.54105 41.3621 9.54105C40.8319 9.54105 40.4097 9.10892 40.4097 8.58866V3.42445ZM30.611 3.42445C30.611 2.89424 31.0432 2.47206 31.5634 2.47206C32.0837 2.47206 32.5158 2.90418 32.5158 3.42445V8.58866C32.5158 9.11886 32.0837 9.54105 31.5634 9.54105C31.0432 9.54105 30.611 9.10892 30.611 8.58866V3.42445ZM20.8223 3.42445C20.8223 2.89424 21.2544 2.47206 21.7747 2.47206C22.295 2.47206 22.737 2.90418 22.737 3.42445V8.58866C22.737 9.11886 22.3049 9.54105 21.7747 9.54105C21.2445 9.54105 20.8223 9.10892 20.8223 8.58866V3.42445ZM11.0336 3.42445C11.0336 2.89424 11.4657 2.47206 11.986 2.47206C12.5062 2.47206 12.9383 2.90418 12.9383 3.42445V8.58866C12.9383 9.11886 12.5062 9.54105 11.986 9.54105C11.4657 9.54105 11.0336 9.10892 11.0336 8.58866V3.42445ZM2.47211 7.97028C2.47211 7.29272 3.02175 6.74313 3.69926 6.74313H9.56088V8.58912C9.56088 9.92435 10.6507 11.0141 11.9859 11.0141C13.3211 11.0141 14.4109 9.92435 14.4109 8.58912V6.74313H19.3397V8.58912C19.3397 9.92435 20.4295 11.0141 21.7647 11.0141C23.0999 11.0141 24.1997 9.92435 24.1997 8.58912V6.74313H29.1284V8.58912C29.1284 9.92435 30.2182 11.0141 31.5534 11.0141C32.8887 11.0141 33.9784 9.92435 33.9784 8.58912L33.9789 6.74313H38.9076V8.58912C38.9076 9.92435 39.9974 11.0141 41.3327 11.0141C42.6679 11.0141 43.7676 9.92435 43.7676 8.58912V6.74313H49.6193C50.2969 6.74313 50.8465 7.29277 50.8465 7.97028V15.4908L2.4721 15.4912L2.47211 7.97028ZM3.69926 52.8883C3.02169 52.8883 2.47211 52.3386 2.47211 51.6611V16.963H50.8754V31.8867C50.0803 31.7294 49.2554 31.6413 48.421 31.6119V28.2737C48.421 27.871 48.087 27.5374 47.6847 27.5374H41.5975C41.1948 27.5374 40.8612 27.8715 40.8612 28.2737V33.2418C39.1919 34.0862 37.6999 35.2153 36.4427 36.57V36.4032C36.4427 36.0005 36.1087 35.6669 35.7064 35.6669H29.6193C29.2165 35.6669 28.8829 36.0009 28.8829 36.4032V41.5774C28.8829 41.9801 29.217 42.3137 29.6193 42.3137H33.0554C32.8981 42.7946 32.7607 43.2855 32.6527 43.7864H29.6187C29.216 43.7864 28.8824 44.1204 28.8824 44.5227V49.6969C28.8824 50.0996 29.2165 50.4332 29.6187 50.4332H32.6527C32.8393 51.2776 33.0943 52.1025 33.4089 52.8876L3.69926 52.8883ZM46.9486 29.0106V31.6223C45.3286 31.7104 43.7873 32.0445 42.3341 32.5941V29.0105L46.9486 29.0106ZM32.408 48.9609H30.3559V45.2594H32.408C32.3393 45.8683 32.29 46.4866 32.29 47.1149C32.2905 47.7337 32.3393 48.3525 32.408 48.9609ZM30.3564 40.8415V37.14H34.9709V38.3965C34.4507 39.1623 33.9991 39.9872 33.6158 40.8415H30.3564ZM47.813 61.1655C40.0665 61.1655 33.7537 54.8622 33.7537 47.1062C33.7537 39.3598 40.057 33.047 47.813 33.047C55.569 33.047 61.8723 39.3503 61.8723 47.1062C61.8723 54.8622 55.569 61.1655 47.813 61.1655Z"/>
</mask>
<path d="M52.3491 32.2605V7.97086C52.3491 6.47838 51.1413 5.27101 49.6493 5.27101H43.7976V3.42502C43.7976 2.0898 42.7078 1 41.3626 1C40.0274 1 38.9376 2.0898 38.9376 3.42502V5.27101H34.0089V3.42502C34.0089 2.0898 32.9191 1 31.5839 1C30.2486 1 29.1588 2.0898 29.1588 3.42502V5.27101H24.2301V3.42502C24.2301 2.0898 23.1403 1 21.7951 1C20.4599 1 19.3701 2.0898 19.3701 3.42502V5.27101H14.4414L14.4409 3.42502C14.4409 2.0898 13.3511 1 12.0159 1C10.6807 1 9.56147 2.0898 9.56147 3.42502V5.27101H3.69985C2.20736 5.27101 1 6.47884 1 7.97086V51.6623C1 53.1547 2.20783 54.3621 3.69985 54.3621H34.0968C36.7085 59.2809 41.8727 62.6388 47.8229 62.6388C56.3843 62.6388 63.3552 55.6679 63.3552 47.1065C63.3457 40.1257 58.7112 34.2055 52.3493 32.2615L52.3491 32.2605ZM40.4097 3.42445C40.4097 2.89424 40.8419 2.47206 41.3621 2.47206C41.8824 2.47206 42.3244 2.90418 42.3244 3.42445V8.58866C42.3244 9.11886 41.8923 9.54105 41.3621 9.54105C40.8319 9.54105 40.4097 9.10892 40.4097 8.58866V3.42445ZM30.611 3.42445C30.611 2.89424 31.0432 2.47206 31.5634 2.47206C32.0837 2.47206 32.5158 2.90418 32.5158 3.42445V8.58866C32.5158 9.11886 32.0837 9.54105 31.5634 9.54105C31.0432 9.54105 30.611 9.10892 30.611 8.58866V3.42445ZM20.8223 3.42445C20.8223 2.89424 21.2544 2.47206 21.7747 2.47206C22.295 2.47206 22.737 2.90418 22.737 3.42445V8.58866C22.737 9.11886 22.3049 9.54105 21.7747 9.54105C21.2445 9.54105 20.8223 9.10892 20.8223 8.58866V3.42445ZM11.0336 3.42445C11.0336 2.89424 11.4657 2.47206 11.986 2.47206C12.5062 2.47206 12.9383 2.90418 12.9383 3.42445V8.58866C12.9383 9.11886 12.5062 9.54105 11.986 9.54105C11.4657 9.54105 11.0336 9.10892 11.0336 8.58866V3.42445ZM2.47211 7.97028C2.47211 7.29272 3.02175 6.74313 3.69926 6.74313H9.56088V8.58912C9.56088 9.92435 10.6507 11.0141 11.9859 11.0141C13.3211 11.0141 14.4109 9.92435 14.4109 8.58912V6.74313H19.3397V8.58912C19.3397 9.92435 20.4295 11.0141 21.7647 11.0141C23.0999 11.0141 24.1997 9.92435 24.1997 8.58912V6.74313H29.1284V8.58912C29.1284 9.92435 30.2182 11.0141 31.5534 11.0141C32.8887 11.0141 33.9784 9.92435 33.9784 8.58912L33.9789 6.74313H38.9076V8.58912C38.9076 9.92435 39.9974 11.0141 41.3327 11.0141C42.6679 11.0141 43.7676 9.92435 43.7676 8.58912V6.74313H49.6193C50.2969 6.74313 50.8465 7.29277 50.8465 7.97028V15.4908L2.4721 15.4912L2.47211 7.97028ZM3.69926 52.8883C3.02169 52.8883 2.47211 52.3386 2.47211 51.6611V16.963H50.8754V31.8867C50.0803 31.7294 49.2554 31.6413 48.421 31.6119V28.2737C48.421 27.871 48.087 27.5374 47.6847 27.5374H41.5975C41.1948 27.5374 40.8612 27.8715 40.8612 28.2737V33.2418C39.1919 34.0862 37.6999 35.2153 36.4427 36.57V36.4032C36.4427 36.0005 36.1087 35.6669 35.7064 35.6669H29.6193C29.2165 35.6669 28.8829 36.0009 28.8829 36.4032V41.5774C28.8829 41.9801 29.217 42.3137 29.6193 42.3137H33.0554C32.8981 42.7946 32.7607 43.2855 32.6527 43.7864H29.6187C29.216 43.7864 28.8824 44.1204 28.8824 44.5227V49.6969C28.8824 50.0996 29.2165 50.4332 29.6187 50.4332H32.6527C32.8393 51.2776 33.0943 52.1025 33.4089 52.8876L3.69926 52.8883ZM46.9486 29.0106V31.6223C45.3286 31.7104 43.7873 32.0445 42.3341 32.5941V29.0105L46.9486 29.0106ZM32.408 48.9609H30.3559V45.2594H32.408C32.3393 45.8683 32.29 46.4866 32.29 47.1149C32.2905 47.7337 32.3393 48.3525 32.408 48.9609ZM30.3564 40.8415V37.14H34.9709V38.3965C34.4507 39.1623 33.9991 39.9872 33.6158 40.8415H30.3564ZM47.813 61.1655C40.0665 61.1655 33.7537 54.8622 33.7537 47.1062C33.7537 39.3598 40.057 33.047 47.813 33.047C55.569 33.047 61.8723 39.3503 61.8723 47.1062C61.8723 54.8622 55.569 61.1655 47.813 61.1655Z" fill="url(#paint11_linear_206_6368)"/>
<path d="M52.3491 32.2605V7.97086C52.3491 6.47838 51.1413 5.27101 49.6493 5.27101H43.7976V3.42502C43.7976 2.0898 42.7078 1 41.3626 1C40.0274 1 38.9376 2.0898 38.9376 3.42502V5.27101H34.0089V3.42502C34.0089 2.0898 32.9191 1 31.5839 1C30.2486 1 29.1588 2.0898 29.1588 3.42502V5.27101H24.2301V3.42502C24.2301 2.0898 23.1403 1 21.7951 1C20.4599 1 19.3701 2.0898 19.3701 3.42502V5.27101H14.4414L14.4409 3.42502C14.4409 2.0898 13.3511 1 12.0159 1C10.6807 1 9.56147 2.0898 9.56147 3.42502V5.27101H3.69985C2.20736 5.27101 1 6.47884 1 7.97086V51.6623C1 53.1547 2.20783 54.3621 3.69985 54.3621H34.0968C36.7085 59.2809 41.8727 62.6388 47.8229 62.6388C56.3843 62.6388 63.3552 55.6679 63.3552 47.1065C63.3457 40.1257 58.7112 34.2055 52.3493 32.2615L52.3491 32.2605ZM40.4097 3.42445C40.4097 2.89424 40.8419 2.47206 41.3621 2.47206C41.8824 2.47206 42.3244 2.90418 42.3244 3.42445V8.58866C42.3244 9.11886 41.8923 9.54105 41.3621 9.54105C40.8319 9.54105 40.4097 9.10892 40.4097 8.58866V3.42445ZM30.611 3.42445C30.611 2.89424 31.0432 2.47206 31.5634 2.47206C32.0837 2.47206 32.5158 2.90418 32.5158 3.42445V8.58866C32.5158 9.11886 32.0837 9.54105 31.5634 9.54105C31.0432 9.54105 30.611 9.10892 30.611 8.58866V3.42445ZM20.8223 3.42445C20.8223 2.89424 21.2544 2.47206 21.7747 2.47206C22.295 2.47206 22.737 2.90418 22.737 3.42445V8.58866C22.737 9.11886 22.3049 9.54105 21.7747 9.54105C21.2445 9.54105 20.8223 9.10892 20.8223 8.58866V3.42445ZM11.0336 3.42445C11.0336 2.89424 11.4657 2.47206 11.986 2.47206C12.5062 2.47206 12.9383 2.90418 12.9383 3.42445V8.58866C12.9383 9.11886 12.5062 9.54105 11.986 9.54105C11.4657 9.54105 11.0336 9.10892 11.0336 8.58866V3.42445ZM2.47211 7.97028C2.47211 7.29272 3.02175 6.74313 3.69926 6.74313H9.56088V8.58912C9.56088 9.92435 10.6507 11.0141 11.9859 11.0141C13.3211 11.0141 14.4109 9.92435 14.4109 8.58912V6.74313H19.3397V8.58912C19.3397 9.92435 20.4295 11.0141 21.7647 11.0141C23.0999 11.0141 24.1997 9.92435 24.1997 8.58912V6.74313H29.1284V8.58912C29.1284 9.92435 30.2182 11.0141 31.5534 11.0141C32.8887 11.0141 33.9784 9.92435 33.9784 8.58912L33.9789 6.74313H38.9076V8.58912C38.9076 9.92435 39.9974 11.0141 41.3327 11.0141C42.6679 11.0141 43.7676 9.92435 43.7676 8.58912V6.74313H49.6193C50.2969 6.74313 50.8465 7.29277 50.8465 7.97028V15.4908L2.4721 15.4912L2.47211 7.97028ZM3.69926 52.8883C3.02169 52.8883 2.47211 52.3386 2.47211 51.6611V16.963H50.8754V31.8867C50.0803 31.7294 49.2554 31.6413 48.421 31.6119V28.2737C48.421 27.871 48.087 27.5374 47.6847 27.5374H41.5975C41.1948 27.5374 40.8612 27.8715 40.8612 28.2737V33.2418C39.1919 34.0862 37.6999 35.2153 36.4427 36.57V36.4032C36.4427 36.0005 36.1087 35.6669 35.7064 35.6669H29.6193C29.2165 35.6669 28.8829 36.0009 28.8829 36.4032V41.5774C28.8829 41.9801 29.217 42.3137 29.6193 42.3137H33.0554C32.8981 42.7946 32.7607 43.2855 32.6527 43.7864H29.6187C29.216 43.7864 28.8824 44.1204 28.8824 44.5227V49.6969C28.8824 50.0996 29.2165 50.4332 29.6187 50.4332H32.6527C32.8393 51.2776 33.0943 52.1025 33.4089 52.8876L3.69926 52.8883ZM46.9486 29.0106V31.6223C45.3286 31.7104 43.7873 32.0445 42.3341 32.5941V29.0105L46.9486 29.0106ZM32.408 48.9609H30.3559V45.2594H32.408C32.3393 45.8683 32.29 46.4866 32.29 47.1149C32.2905 47.7337 32.3393 48.3525 32.408 48.9609ZM30.3564 40.8415V37.14H34.9709V38.3965C34.4507 39.1623 33.9991 39.9872 33.6158 40.8415H30.3564ZM47.813 61.1655C40.0665 61.1655 33.7537 54.8622 33.7537 47.1062C33.7537 39.3598 40.057 33.047 47.813 33.047C55.569 33.047 61.8723 39.3503 61.8723 47.1062C61.8723 54.8622 55.569 61.1655 47.813 61.1655Z" stroke="url(#paint12_linear_206_6368)" stroke-width="0.6" mask="url(#path-12-outside-1_206_6368)"/>
<path d="M58.3189 45.8408L58.5897 45.57L58.5899 45.5698L58.7313 45.7113L58.3189 45.8408ZM58.3189 45.8408C57.6913 40.6083 53.2224 36.5275 47.8134 36.5275C43.76 36.5275 40.0081 38.8987 38.2568 42.5611C38.0313 43.0256 38.2329 43.5855 38.6929 43.8095L38.693 43.8096C39.1577 44.0355 39.718 43.834 39.9421 43.3737L39.9421 43.3737L39.9427 43.3724C41.3824 40.3587 44.4738 38.4002 47.8035 38.4002C52.1031 38.4002 55.6856 41.5359 56.3904 45.6405L56.3197 45.5698C55.9569 45.207 55.3588 45.2068 54.9963 45.5698C54.6335 45.9326 54.6334 46.5307 54.9964 46.8932" fill="url(#paint13_linear_206_6368)" stroke="url(#paint14_linear_206_6368)" stroke-width="0.4"/>
<path d="M35.7334 48.6505C35.3703 48.288 35.3705 47.6898 35.7333 47.327L37.52 45.5403C37.873 45.1874 38.4905 45.1874 38.8434 45.5403L40.63 47.3269C40.9931 47.6894 40.9929 48.2876 40.6301 48.6504L36.9152 48.509L37.0567 48.6504C36.6942 49.0133 36.0962 49.0132 35.7334 48.6505ZM35.7334 48.6505C35.7334 48.6505 35.7333 48.6504 35.7333 48.6504L35.8747 48.509L35.7334 48.6505ZM57.3821 51.6636C57.5916 51.1964 57.398 50.6411 56.9403 50.414L37.0568 48.6503L37.3275 48.3795C37.9543 53.6207 42.4136 57.7022 47.8231 57.7022C51.8767 57.7022 55.6289 55.3308 57.38 51.668L57.3801 51.6681L57.3821 51.6636ZM56.9336 50.4107L56.9334 50.4106C56.4688 50.1846 55.9085 50.3861 55.6844 50.8464L55.6837 50.8478C54.244 53.8614 51.1526 55.82 47.823 55.82C43.5234 55.82 39.9409 52.6842 39.2361 48.5797L39.3068 48.6504C39.4936 48.8372 39.732 48.925 39.9685 48.925L56.9336 50.4107Z" fill="url(#paint15_linear_206_6368)" stroke="url(#paint16_linear_206_6368)" stroke-width="0.4"/>
<path d="M46.6007 50.7518C46.4139 50.9385 46.176 51.0264 45.939 51.0264C45.7076 51.0264 45.4562 50.942 45.275 50.7495L43.0879 48.5623C42.7248 48.1999 42.725 47.6018 43.0877 47.2389L46.6007 50.7518ZM46.6007 50.7518C46.6007 50.7518 46.6007 50.7518 46.6007 50.7518L52.5605 44.792C52.9232 44.4292 52.9234 43.8311 52.5605 43.4686C52.1977 43.1058 51.5995 43.1057 51.237 43.4687L45.939 48.7667L46.6007 50.7518Z" fill="url(#paint17_linear_206_6368)" stroke="url(#paint18_linear_206_6368)" stroke-width="0.4"/>
<defs>
<linearGradient id="paint0_linear_206_6368" x1="5.72342" y1="20.1349" x2="10.5004" y2="26.248" gradientUnits="userSpaceOnUse">
<stop stop-color="#003399"/>
<stop offset="1" stop-color="#FFB319"/>
</linearGradient>
<linearGradient id="paint1_linear_206_6368" x1="17.701" y1="20.1358" x2="22.4779" y2="26.2489" gradientUnits="userSpaceOnUse">
<stop stop-color="#003399"/>
<stop offset="1" stop-color="#FFB319"/>
</linearGradient>
<linearGradient id="paint2_linear_206_6368" x1="29.6785" y1="20.1349" x2="34.4554" y2="26.248" gradientUnits="userSpaceOnUse">
<stop stop-color="#003399"/>
<stop offset="1" stop-color="#FFB319"/>
</linearGradient>
<linearGradient id="paint3_linear_206_6368" x1="41.656" y1="20.1349" x2="46.433" y2="26.248" gradientUnits="userSpaceOnUse">
<stop stop-color="#003399"/>
<stop offset="1" stop-color="#FFB319"/>
</linearGradient>
<linearGradient id="paint4_linear_206_6368" x1="5.72342" y1="28.255" x2="10.5004" y2="34.3681" gradientUnits="userSpaceOnUse">
<stop stop-color="#003399"/>
<stop offset="1" stop-color="#FFB319"/>
</linearGradient>
<linearGradient id="paint5_linear_206_6368" x1="17.701" y1="28.255" x2="22.4779" y2="34.3681" gradientUnits="userSpaceOnUse">
<stop stop-color="#003399"/>
<stop offset="1" stop-color="#FFB319"/>
</linearGradient>
<linearGradient id="paint6_linear_206_6368" x1="5.72342" y1="36.3839" x2="10.5004" y2="42.497" gradientUnits="userSpaceOnUse">
<stop stop-color="#003399"/>
<stop offset="1" stop-color="#FFB319"/>
</linearGradient>
<linearGradient id="paint7_linear_206_6368" x1="17.701" y1="36.3839" x2="22.4779" y2="42.497" gradientUnits="userSpaceOnUse">
<stop stop-color="#003399"/>
<stop offset="1" stop-color="#FFB319"/>
</linearGradient>
<linearGradient id="paint8_linear_206_6368" x1="5.72342" y1="44.504" x2="10.5004" y2="50.6171" gradientUnits="userSpaceOnUse">
<stop stop-color="#003399"/>
<stop offset="1" stop-color="#FFB319"/>
</linearGradient>
<linearGradient id="paint9_linear_206_6368" x1="17.701" y1="44.504" x2="22.4779" y2="50.6171" gradientUnits="userSpaceOnUse">
<stop stop-color="#003399"/>
<stop offset="1" stop-color="#FFB319"/>
</linearGradient>
<linearGradient id="paint10_linear_206_6368" x1="29.6785" y1="28.2657" x2="34.4554" y2="34.3788" gradientUnits="userSpaceOnUse">
<stop stop-color="#003399"/>
<stop offset="1" stop-color="#FFB319"/>
</linearGradient>
<linearGradient id="paint11_linear_206_6368" x1="7.55497" y1="7.64813" x2="52.8276" y2="59.1792" gradientUnits="userSpaceOnUse">
<stop stop-color="#003399"/>
<stop offset="1" stop-color="#FFB319"/>
</linearGradient>
<linearGradient id="paint12_linear_206_6368" x1="9.31365" y1="3.58072" x2="51.6403" y2="57.9832" gradientUnits="userSpaceOnUse">
<stop stop-color="#003399"/>
<stop offset="1" stop-color="#FFB319"/>
</linearGradient>
<linearGradient id="paint13_linear_206_6368" x1="40.6369" y1="38.0247" x2="47.7152" y2="52.3405" gradientUnits="userSpaceOnUse">
<stop stop-color="#003399"/>
<stop offset="1" stop-color="#FFB319"/>
</linearGradient>
<linearGradient id="paint14_linear_206_6368" x1="41.2466" y1="37.2311" x2="47.5077" y2="51.5301" gradientUnits="userSpaceOnUse">
<stop stop-color="#003399"/>
<stop offset="1" stop-color="#FFB319"/>
</linearGradient>
<linearGradient id="paint15_linear_206_6368" x1="37.9323" y1="46.7727" x2="45.0129" y2="61.0847" gradientUnits="userSpaceOnUse">
<stop stop-color="#003399"/>
<stop offset="1" stop-color="#FFB319"/>
</linearGradient>
<linearGradient id="paint16_linear_206_6368" x1="38.5417" y1="45.9791" x2="44.8051" y2="60.275" gradientUnits="userSpaceOnUse">
<stop stop-color="#003399"/>
<stop offset="1" stop-color="#FFB319"/>
</linearGradient>
<linearGradient id="paint17_linear_206_6368" x1="44.0266" y1="44.1978" x2="49.1623" y2="51.6774" gradientUnits="userSpaceOnUse">
<stop stop-color="#003399"/>
<stop offset="1" stop-color="#FFB319"/>
</linearGradient>
<linearGradient id="paint18_linear_206_6368" x1="44.2978" y1="43.7076" x2="48.9712" y2="51.393" gradientUnits="userSpaceOnUse">
<stop stop-color="#003399"/>
<stop offset="1" stop-color="#FFB319"/>
</linearGradient>
</defs>
</svg>
